<?xml version="1.0" encoding="UTF-8"?>
<svg id="Capa_1" data-name="Capa 1" xmlns="http://www.w3.org/2000/svg" viewBox="0 0 1920 1080">
  <defs>
    <style>
      .cls-1 {
        fill: red;
      }
    </style>
  </defs>
  <rect class="cls-1" x="433.46" y="449.74" width="13.14" height="180.77"/>
  <path class="cls-1" d="M736.32,634.07c-55.23,0-85.53-42.31-85.53-94.2s31.19-93.95,85.53-93.95,85.54,42.54,85.54,93.95-31.61,94.2-85.54,94.2M736.32,458.8c-39.39,0-71.45,29.44-71.45,80.41s32.06,82.48,71.45,82.48,71.46-31.09,71.46-81.81-32.48-81.08-71.46-81.08"/>
  <polygon class="cls-1" points="862.46 630.51 862.46 449.74 875.44 449.74 875.61 618.55 947.08 618.34 947.08 630.51 862.46 630.51"/>
  <polygon class="cls-1" points="1060.05 483.42 1060.37 630.51 1019.24 630.51 1019.24 483.71 968.2 483.71 968.2 449.74 1111.76 449.74 1111.44 483.42 1060.05 483.42"/>
  <polygon class="cls-1" points="1142.29 630.51 1142.29 449.74 1246.69 449.74 1246.69 483.62 1183.44 483.62 1183 523.16 1241.47 523.16 1241.88 556.57 1183.44 556.57 1183.44 596.94 1250.4 596.94 1250.4 630.51 1142.29 630.51"/>
  <polygon class="cls-1" points="1389.93 629.92 1355.67 560.28 1320.28 630.51 1271.15 630.36 1328.37 540.94 1276.41 449.74 1324.86 449.74 1356.76 518.57 1392.12 449.74 1436.66 449.74 1382.52 539.08 1438.42 630.01 1389.93 629.92"/>
  <path class="cls-1" d="M618.86,453.5s-105.25-37.34-128.82,73.02c0,0-10.41,73.72,45.29,98.94,0,0,33.73,18.01,83.53,0v-13.77s-99.93,41.25-114.98-53.71c0,0-11.79-129.37,114.98-89.76v-14.73Z"/>
  <path class="cls-1" d="M1467.69,449.99c3.24,0,6.36.82,9.31,2.42,2.97,1.62,5.33,3.94,7.01,6.97,1.69,3.03,2.54,6.18,2.54,9.49s-.83,6.4-2.49,9.39c-1.67,2.97-3.98,5.28-6.97,6.95-2.98,1.71-6.1,2.5-9.39,2.5s-6.43-.79-9.39-2.5c-3-1.67-5.32-3.98-6.99-6.95-1.65-2.98-2.48-6.11-2.48-9.39s.83-6.47,2.56-9.49c1.7-3.03,4.02-5.34,6.98-6.97,2.99-1.61,6.07-2.42,9.33-2.42M1467.69,453.67c-2.57,0-5.06.67-7.47,1.98-2.33,1.27-4.21,3.15-5.61,5.59-1.36,2.42-2.05,4.96-2.05,7.64s.67,5.15,2.02,7.55c1.33,2.4,3.19,4.25,5.6,5.61,2.39,1.35,4.89,2,7.5,2s5.15-.65,7.57-2c2.39-1.36,4.24-3.21,5.59-5.61,1.35-2.4,2.04-4.93,2.04-7.55s-.72-5.22-2.07-7.64c-1.37-2.44-3.27-4.32-5.64-5.59-2.41-1.32-4.88-1.98-7.49-1.98M1459.18,478.95v-20.03h4.06c3.79,0,5.92,0,6.4.09,1.35.08,2.39.35,3.13.77.77.42,1.38,1.07,1.9,1.92.48.86.73,1.84.73,2.88,0,1.44-.48,2.67-1.42,3.71-.94,1.02-2.26,1.65-3.96,1.88.61.25,1.09.48,1.4.77.34.27.77.77,1.36,1.55.15.21.62,1,1.48,2.44l2.38,4.03h-5.03l-1.67-3.23c-1.15-2.19-2.09-3.57-2.82-4.13-.74-.58-1.69-.86-2.81-.86h-1.05v8.22h-4.06ZM1463.23,467.56h1.66c2.32,0,3.79-.08,4.36-.27.56-.15,1.02-.46,1.34-.94.34-.44.5-.96.5-1.52s-.16-1.07-.5-1.5c-.29-.44-.76-.75-1.35-.92-.61-.19-2.05-.29-4.35-.29h-1.66v5.45Z"/>
</svg>