<?xml version="1.0" encoding="UTF-8"?>
<svg id="Capa_1" data-name="Capa 1" xmlns="http://www.w3.org/2000/svg" viewBox="780 455 480 250" preserveAspectRatio="xMinYMid meet">
  <defs>
    <style>
      .cls-1 {
        fill: red;
      }
    </style>
  </defs>
  <path class="cls-1" d="M999.67,530.7l80.42,124.27c8.44,12.39,23.86,23.4,40.7,23.4h5.46l.05,4.02h-136.83l-.06-4.02h5.07c10.93,0,20.57-13.26,13.83-24.63l-55.95-86.79-77.84,110.57c-37.84,53.42-76.91,72.28-121.06,65.05v-4.02c44.14-4.01,65.8-33.29,89.44-65.91l93.98-129.78-73.31-113.75c-8.43-12.4-23.81-23.6-40.57-23.6h-5.73v-4h136.28l.04,4h-5.06c-10.87,0-20.49,13.33-13.92,24.67l49.03,75.75,69.78-102.88c26.74-39.2,63.98-71.68,113.11-66.56v4.02c-37.07.75-62,39.04-81.11,66.25l-85.75,123.94Z"/>
</svg>