<?xml version="1.0" encoding="UTF-8"?>
<svg id="Capa_1" data-name="Capa 1" xmlns="http://www.w3.org/2000/svg" viewBox="0 0 1920 1080">
  <rect x="234.03" y="449.82" width="13.13" height="180.6"/>
  <path d="M536.62,633.99c-55.18,0-85.45-42.27-85.45-94.12s31.16-93.87,85.45-93.87,85.47,42.5,85.47,93.87-31.58,94.12-85.47,94.12M536.62,458.87c-39.36,0-71.39,29.41-71.39,80.34s32.03,82.41,71.39,82.41,71.39-31.06,71.39-81.74-32.46-81.01-71.39-81.01"/>
  <polygon points="662.64 630.43 662.64 449.82 675.62 449.82 675.78 618.48 747.19 618.28 747.19 630.43 662.64 630.43"/>
  <polygon points="860.06 483.47 860.38 630.43 819.28 630.43 819.28 483.76 768.29 483.76 768.29 449.82 911.72 449.82 911.4 483.47 860.06 483.47"/>
  <polygon points="942.23 630.43 942.23 449.82 1046.53 449.82 1046.53 483.67 983.34 483.67 982.9 523.18 1041.32 523.18 1041.72 556.55 983.34 556.55 983.34 596.89 1050.24 596.89 1050.24 630.43 942.23 630.43"/>
  <polygon points="1189.64 629.84 1155.41 560.26 1120.06 630.43 1070.97 630.28 1128.14 540.94 1076.22 449.82 1124.64 449.82 1156.5 518.59 1191.83 449.82 1236.34 449.82 1182.24 539.08 1238.09 629.93 1189.64 629.84"/>
  <path d="M419.26,453.58s-105.16-37.31-128.7,72.96c0,0-10.4,73.65,45.25,98.85,0,0,33.7,17.99,83.45,0v-13.75s-99.84,41.21-114.88-53.66c0,0-11.78-129.26,114.88-89.68v-14.72Z"/>
  <path d="M1267.33,450.07c3.23,0,6.35.82,9.3,2.42,2.96,1.62,5.33,3.94,7,6.96,1.69,3.02,2.53,6.17,2.53,9.49s-.82,6.4-2.49,9.38c-1.67,2.96-3.98,5.27-6.96,6.94-2.98,1.71-6.1,2.5-9.38,2.5s-6.42-.79-9.38-2.5c-2.99-1.67-5.32-3.98-6.99-6.94-1.64-2.98-2.48-6.11-2.48-9.38s.83-6.46,2.55-9.49c1.7-3.02,4.02-5.34,6.97-6.96,2.98-1.61,6.07-2.42,9.32-2.42M1267.33,453.74c-2.57,0-5.05.67-7.46,1.98-2.33,1.27-4.21,3.15-5.6,5.59-1.36,2.42-2.04,4.96-2.04,7.63s.67,5.15,2.02,7.54c1.33,2.4,3.19,4.25,5.6,5.61,2.39,1.35,4.89,2,7.49,2s5.15-.65,7.57-2c2.39-1.36,4.23-3.21,5.59-5.61,1.34-2.4,2.04-4.92,2.04-7.54s-.72-5.21-2.07-7.63c-1.37-2.44-3.26-4.32-5.64-5.59-2.41-1.31-4.88-1.98-7.48-1.98M1258.83,479v-20.01h4.05c3.78,0,5.92,0,6.39.09,1.34.08,2.38.35,3.13.77.77.42,1.37,1.06,1.9,1.92.48.85.73,1.83.73,2.88,0,1.44-.48,2.67-1.42,3.71-.94,1.02-2.26,1.64-3.96,1.88.61.25,1.09.48,1.4.77.33.27.77.77,1.36,1.55.15.21.62,1,1.48,2.43l2.38,4.02h-5.02l-1.67-3.23c-1.15-2.19-2.09-3.56-2.82-4.13-.74-.58-1.69-.85-2.81-.85h-1.05v8.21h-4.05ZM1262.88,467.63h1.66c2.31,0,3.79-.08,4.35-.27.56-.15,1.02-.46,1.34-.94.33-.44.5-.96.5-1.52s-.16-1.06-.5-1.5c-.29-.44-.76-.75-1.34-.92-.61-.19-2.05-.29-4.35-.29h-1.66v5.44Z"/>
  <path d="M1569.86,533.53l55.96,86.48c5.87,8.62,16.61,16.28,28.32,16.28h3.8l.03,2.8h-95.22l-.04-2.8h3.53c7.61,0,14.31-9.22,9.62-17.14l-38.93-60.39-54.17,76.94c-26.33,37.17-53.52,50.3-84.24,45.26v-2.8c30.72-2.79,45.79-23.17,62.24-45.86l65.4-90.31-51.01-79.16c-5.87-8.63-16.57-16.43-28.23-16.43h-3.99v-2.78h94.84l.03,2.78h-3.52c-7.56,0-14.26,9.28-9.69,17.17l34.12,52.71,48.56-71.59c18.61-27.28,44.52-49.88,78.71-46.32v2.8c-25.8.52-43.14,27.17-56.44,46.1l-59.67,86.25Z"/>
</svg>